<svg width="25" height="25" viewBox="0 0 21 21" fill="none" xmlns="http://www.w3.org/2000/svg">
<g clip-path="url(#clip0_1_44)">
<path d="M10.5542 2.31249C10.5907 2.2387 10.6471 2.1766 10.7171 2.13317C10.787 2.08975 10.8677 2.06674 10.95 2.06674C11.0323 2.06674 11.113 2.08975 11.183 2.13317C11.2529 2.1766 11.3093 2.2387 11.3458 2.31249L13.2708 6.21165C13.3977 6.46829 13.5849 6.69033 13.8164 6.8587C14.0479 7.02707 14.3168 7.13675 14.6 7.17832L18.905 7.80832C18.9866 7.82014 19.0632 7.85455 19.1262 7.90765C19.1893 7.96076 19.2362 8.03044 19.2617 8.10883C19.2872 8.18721 19.2902 8.27116 19.2705 8.35118C19.2508 8.43121 19.209 8.50411 19.15 8.56165L16.0367 11.5933C15.8314 11.7934 15.6777 12.0404 15.589 12.313C15.5003 12.5856 15.4792 12.8757 15.5275 13.1583L16.2625 17.4417C16.2769 17.5232 16.2681 17.6071 16.2371 17.6839C16.2061 17.7607 16.1541 17.8272 16.0871 17.8758C16.0201 17.9245 15.9408 17.9533 15.8582 17.9591C15.7756 17.9648 15.6931 17.9472 15.62 17.9083L11.7717 15.885C11.5181 15.7518 11.236 15.6823 10.9496 15.6823C10.6632 15.6823 10.3811 15.7518 10.1275 15.885L6.28001 17.9083C6.20695 17.947 6.1245 17.9644 6.04205 17.9585C5.95959 17.9527 5.88044 17.9238 5.81359 17.8752C5.74673 17.8265 5.69487 17.7601 5.66389 17.6835C5.63291 17.6069 5.62405 17.5231 5.63834 17.4417L6.37251 13.1592C6.421 12.8764 6.39999 12.5862 6.31129 12.3134C6.22258 12.0406 6.06885 11.7934 5.86334 11.5933L2.75001 8.56249C2.6905 8.50501 2.64833 8.43198 2.62831 8.35172C2.60828 8.27145 2.6112 8.18717 2.63674 8.10848C2.66227 8.02979 2.7094 7.95985 2.77274 7.90664C2.83608 7.85342 2.91309 7.81907 2.99501 7.80749L7.29917 7.17832C7.58272 7.13707 7.852 7.02753 8.08383 6.85914C8.31566 6.69075 8.50309 6.46855 8.63001 6.21165L10.5542 2.31249Z" stroke="#FACC15" stroke-width="2" stroke-linecap="round" stroke-linejoin="round"/>
</g>
<defs>
<clipPath id="clip0_1_44">
<rect width="20" height="20" fill="white" transform="translate(0.950012 0.399994)"/>
</clipPath>
</defs>
</svg>