<svg width="25" height="25" viewBox="0 0 20 18" fill="none" xmlns="http://www.w3.org/2000/svg">
<path d="M9.65415 1.31249C9.69067 1.2387 9.74708 1.1766 9.81703 1.13317C9.88697 1.08975 9.96766 1.06674 10.05 1.06674C10.1323 1.06674 10.213 1.08975 10.2829 1.13317C10.3529 1.1766 10.4093 1.2387 10.4458 1.31249L12.3708 5.21165C12.4976 5.46829 12.6848 5.69033 12.9163 5.8587C13.1478 6.02707 13.4168 6.13675 13.7 6.17832L18.005 6.80832C18.0866 6.82014 18.1632 6.85455 18.2262 6.90765C18.2893 6.96076 18.3362 7.03044 18.3617 7.10883C18.3872 7.18721 18.3902 7.27116 18.3705 7.35118C18.3507 7.43121 18.309 7.50411 18.25 7.56165L15.1367 10.5933C14.9313 10.7934 14.7777 11.0404 14.689 11.313C14.6003 11.5856 14.5792 11.8757 14.6275 12.1583L15.3625 16.4417C15.3769 16.5232 15.3681 16.6071 15.3371 16.6839C15.3061 16.7607 15.2541 16.8272 15.1871 16.8758C15.1201 16.9245 15.0408 16.9533 14.9582 16.9591C14.8756 16.9648 14.7931 16.9472 14.72 16.9083L10.8716 14.885C10.6181 14.7518 10.336 14.6823 10.0496 14.6823C9.76317 14.6823 9.48105 14.7518 9.22748 14.885L5.37998 16.9083C5.30692 16.947 5.22448 16.9644 5.14202 16.9585C5.05957 16.9527 4.98041 16.9238 4.91356 16.8752C4.84671 16.8265 4.79484 16.7601 4.76386 16.6835C4.73288 16.6069 4.72403 16.5231 4.73832 16.4417L5.47248 12.1592C5.52098 11.8764 5.49997 11.5862 5.41126 11.3134C5.32256 11.0406 5.16882 10.7934 4.96332 10.5933L1.84998 7.56249C1.79048 7.50501 1.74831 7.43198 1.72828 7.35172C1.70826 7.27145 1.71118 7.18717 1.73671 7.10848C1.76225 7.02979 1.80937 6.95985 1.87271 6.90664C1.93605 6.85342 2.01307 6.81907 2.09498 6.80749L6.39915 6.17832C6.6827 6.13707 6.95197 6.02753 7.1838 5.85914C7.41563 5.69075 7.60307 5.46855 7.72998 5.21165L9.65415 1.31249Z" stroke="#2DD4BF" stroke-width="2" stroke-linecap="round" stroke-linejoin="round"/>
</svg>